<svg xmlns="http://www.w3.org/2000/svg" width="48.993" height="49.077" viewBox="0 0 48.993 49.077">
  <g id="Groupe_137" data-name="Groupe 137" transform="translate(0.1 0.185)">
    <path id="Tracé_67" data-name="Tracé 67" d="M47.364,45.933H45.839V36.88a4.3,4.3,0,0,0-2.859-4.043V25.444A4.3,4.3,0,0,0,40.121,21.4V13.055a4.293,4.293,0,0,0-4.288-4.288H27.848L29.317,7.3A4.276,4.276,0,0,0,24.4.442,4.276,4.276,0,0,0,19.476,7.3l1.469,1.469H12.961a4.293,4.293,0,0,0-4.288,4.288V21.4a4.3,4.3,0,0,0-2.859,4.043v7.393A4.3,4.3,0,0,0,2.954,36.88v9.053H1.429a1.429,1.429,0,1,0,0,2.859H47.364a1.429,1.429,0,0,0,0-2.859ZM21.5,3.274a1.42,1.42,0,0,1,1.948-.056,1.43,1.43,0,0,0,1.906,0A1.417,1.417,0,0,1,27.3,5.276l-2.9,2.9-2.9-2.9a1.415,1.415,0,0,1,0-2Zm-9.965,9.781a1.431,1.431,0,0,1,1.429-1.429H35.833a1.431,1.431,0,0,1,1.429,1.429v1.88a2.284,2.284,0,0,1-2.859,0,1.429,1.429,0,0,0-2.858,0,1.819,1.819,0,0,1-1.43.5,1.819,1.819,0,0,1-1.43-.5,1.429,1.429,0,0,0-2.858,0,1.819,1.819,0,0,1-1.43.5,1.819,1.819,0,0,1-1.43-.5,1.429,1.429,0,0,0-2.858,0,1.819,1.819,0,0,1-1.43.5,1.819,1.819,0,0,1-1.43-.5,1.429,1.429,0,0,0-2.858,0,1.819,1.819,0,0,1-1.43.5,1.821,1.821,0,0,1-1.429-.5Zm0,5.058a5.547,5.547,0,0,0,1.429.184,5.051,5.051,0,0,0,2.859-.829,5.342,5.342,0,0,0,5.718,0,5.342,5.342,0,0,0,5.718,0,5.342,5.342,0,0,0,5.718,0,5.051,5.051,0,0,0,2.859.829,5.547,5.547,0,0,0,1.429-.184v3.043H11.531ZM8.672,25.444A1.431,1.431,0,0,1,10.1,24.015h28.59a1.431,1.431,0,0,1,1.429,1.429v7.147H8.672ZM42.98,45.933H5.813V42.715a5.188,5.188,0,0,0,1.906.359,5.033,5.033,0,0,0,3.335-1.229,5.142,5.142,0,0,0,6.671,0,5.142,5.142,0,0,0,6.671,0,5.142,5.142,0,0,0,6.671,0,5.142,5.142,0,0,0,6.671,0,5.033,5.033,0,0,0,3.335,1.229,5.188,5.188,0,0,0,1.906-.359Zm0-7.147c0,.775-.873,1.429-1.906,1.429s-1.906-.655-1.906-1.429a1.429,1.429,0,0,0-2.859,0c0,.775-.873,1.429-1.906,1.429S32.5,39.561,32.5,38.786a1.429,1.429,0,1,0-2.859,0c0,.775-.873,1.429-1.906,1.429s-1.906-.655-1.906-1.429a1.429,1.429,0,1,0-2.859,0c0,.775-.873,1.429-1.906,1.429s-1.906-.655-1.906-1.429a1.429,1.429,0,1,0-2.859,0c0,.775-.873,1.429-1.906,1.429s-1.906-.655-1.906-1.429a1.429,1.429,0,1,0-2.859,0c0,.775-.873,1.429-1.906,1.429s-1.906-.655-1.906-1.429V36.88a1.431,1.431,0,0,1,1.429-1.429H41.55A1.431,1.431,0,0,1,42.98,36.88Z" transform="translate(0 0)" stroke="#fff" stroke-width="0.2"/>
    <ellipse id="Ellipse_27" data-name="Ellipse 27" cx="1" cy="2" rx="1" ry="2" transform="translate(23 25.977)" stroke="#fff" stroke-width="0.2"/>
    <ellipse id="Ellipse_28" data-name="Ellipse 28" cx="1" cy="2" rx="1" ry="2" transform="translate(29 25.977)" stroke="#fff" stroke-width="0.2"/>
    <ellipse id="Ellipse_29" data-name="Ellipse 29" cx="1.5" cy="2" rx="1.5" ry="2" transform="translate(34 25.977)" stroke="#fff" stroke-width="0.2"/>
    <ellipse id="Ellipse_30" data-name="Ellipse 30" cx="1.5" cy="2" rx="1.5" ry="2" transform="translate(17 25.977)" stroke="#fff" stroke-width="0.2"/>
    <ellipse id="Ellipse_31" data-name="Ellipse 31" cx="1" cy="2" rx="1" ry="2" transform="translate(12 25.977)" stroke="#fff" stroke-width="0.2"/>
  </g>
</svg>
