<svg xmlns="http://www.w3.org/2000/svg" width="52.52" height="43.97" viewBox="0 0 52.52 43.97">
  <g id="Gobelets" transform="translate(-17.911)">
    <g id="Groupe_215" data-name="Groupe 215">
      <g id="Groupe_5" data-name="Groupe 5" transform="translate(17.911)">
        <g id="Groupe_4" data-name="Groupe 4">
          <path id="Tracé_6" data-name="Tracé 6" d="M136.894,37.575a11.638,11.638,0,0,1,.2-7.682l.167-.44c3.631-9.532,2.589-19.455,2.1-20.866a5.154,5.154,0,0,0-6.268-5.881,6.455,6.455,0,0,0-10.51,0,5.156,5.156,0,0,0-6.268,5.881,41.175,41.175,0,0,0,2.1,20.866l.168.44a11.638,11.638,0,0,1,.2,7.681l-.239.741a3.866,3.866,0,0,0,3.427,5.654h11.734a3.866,3.866,0,0,0,3.427-5.654ZM121.4,5.145a2.546,2.546,0,0,1,1.172.281,1.288,1.288,0,0,0,1.757-.608,3.867,3.867,0,0,1,7.026,0,1.288,1.288,0,0,0,1.757.608,2.547,2.547,0,0,1,1.172-.281,2.515,2.515,0,0,1,2.577,2.5h-3.865A1.356,1.356,0,0,0,131.7,9.01v5.326a1.288,1.288,0,1,1-2.577,0v-5.4a1.288,1.288,0,0,0-1.288-1.288h-9.019A2.515,2.515,0,0,1,121.4,5.145Zm-2.766,5.723,0-.015.059-.554h7.86v4.037a3.865,3.865,0,0,0,7.731,0V10.3h2.706l.059.554,0,.015a37.519,37.519,0,0,1-2.192,17.668l-.168.44a14.228,14.228,0,0,0-.752,7.264H121.741a14.227,14.227,0,0,0-.752-7.264l-.168-.44A37.516,37.516,0,0,1,118.63,10.868Zm16.19,29.884a1.266,1.266,0,0,1-1.114.642H121.972a1.266,1.266,0,0,1-1.114-.642c-.408-.7-.041-1.082.234-1.935h13.5C134.881,39.733,135.215,40.072,134.82,40.751Z" transform="translate(-115.806)"/>
        </g>
      </g>
      <g id="Groupe_6" data-name="Groupe 6" transform="translate(48.283 9.705)">
        <g id="b91_drink" data-name="b91 drink" transform="translate(0 0)">
          <path id="Tracé_7" data-name="Tracé 7" d="M14.643,35.691h12.9L31.419,3.108H10.771Z" transform="translate(-10.771 -3.108)" fill="none" stroke="#030104" stroke-linejoin="round" stroke-width="3"/>
        </g>
      </g>
    </g>
    <g id="W_WOBZ" data-name="W WOBZ" transform="translate(-108 -213.538)">
      <g id="Groupe_135" data-name="Groupe 135" transform="translate(0 5)">
        <path id="Tracé_59" data-name="Tracé 59" d="M39.3,60.255h0a1.362,1.362,0,1,0-2.364,1.314h0l2.212,4.02,2.321-1.382Z" transform="translate(124.324 171.7)" fill="#1e1e1e"/>
        <path id="Tracé_60" data-name="Tracé 60" d="M114.937,79.482l-2.3-1.453-2.283,4.049h0a1.361,1.361,0,0,0,2.277,1.492l.011.007Z" transform="translate(53.037 153.636)" fill="#42b2c5"/>
        <path id="Tracé_61" data-name="Tracé 61" d="M187.967,65.588l2.247-1.526-2.178-3.868a1.357,1.357,0,0,0-.1-.186h0a1.361,1.361,0,0,0-2.374,1.309l0,0,.035.061a1.354,1.354,0,0,0,.072.128Z" transform="translate(-20.032 171.701)" fill="#f9d200"/>
        <path id="Tracé_62" data-name="Tracé 62" d="M265.649,56.983a1.362,1.362,0,0,0-2.594-.58l-2.1,3.947h0a1.361,1.361,0,1,0,2.413,1.238l2.082-3.9A1.355,1.355,0,0,0,265.649,56.983Z" transform="translate(-93.102 175.379)" fill="#d32f88"/>
      </g>
      <g id="Groupe_136" data-name="Groupe 136">
        <path id="Tracé_63" data-name="Tracé 63" d="M39.3,60.255h0a1.362,1.362,0,1,0-2.364,1.314h0l2.212,4.02,2.321-1.382Z" transform="translate(95.324 176.7)" fill="#1e1e1e"/>
        <path id="Tracé_64" data-name="Tracé 64" d="M114.937,79.482l-2.3-1.453-2.283,4.049h0a1.361,1.361,0,0,0,2.277,1.492l.011.007Z" transform="translate(24.037 158.636)" fill="#42b2c5"/>
        <path id="Tracé_65" data-name="Tracé 65" d="M187.967,65.588l2.247-1.526-2.178-3.868a1.357,1.357,0,0,0-.1-.186h0a1.361,1.361,0,0,0-2.374,1.309l0,0,.035.061a1.354,1.354,0,0,0,.072.128Z" transform="translate(-49.032 176.701)" fill="#f9d200"/>
        <path id="Tracé_66" data-name="Tracé 66" d="M265.649,56.983a1.362,1.362,0,0,0-2.594-.58l-2.1,3.947h0a1.361,1.361,0,1,0,2.413,1.238l2.082-3.9A1.355,1.355,0,0,0,265.649,56.983Z" transform="translate(-122.102 180.379)" fill="#d32f88"/>
      </g>
    </g>
  </g>
</svg>
