<svg id="Calque_1" data-name="Calque 1" xmlns="http://www.w3.org/2000/svg" viewBox="0 0 1000 1000"><title>pattern-serie1</title><polygon points="833.33 71.43 666.67 0 500 71.43 333.33 0 166.67 71.43 0 0 0 71.43 166.67 142.86 333.33 71.43 500 142.86 666.67 71.43 833.33 142.86 1000 71.43 1000 0 833.33 71.43"/><polygon points="666.67 142.86 500 214.29 333.33 142.86 166.67 214.29 0 142.86 0 214.29 166.67 285.71 333.33 214.29 500 285.71 666.67 214.29 833.33 285.71 1000 214.29 1000 142.86 833.33 214.29 666.67 142.86"/><polygon points="666.67 285.71 500 357.14 333.33 285.71 166.67 357.14 0 285.71 0 357.14 166.67 428.57 333.33 357.14 500 428.57 666.67 357.14 833.33 428.57 1000 357.14 1000 285.71 833.33 357.14 666.67 285.71"/><polygon points="666.67 428.57 500 500 333.33 428.57 166.67 500 0 428.57 0 500 166.67 571.43 333.33 500 500 571.43 666.67 500 833.33 571.43 1000 500 1000 428.57 833.33 500 666.67 428.57"/><polygon points="666.67 571.43 500 642.86 333.33 571.43 166.67 642.86 0 571.43 0 642.86 166.67 714.29 333.33 642.86 500 714.29 666.67 642.86 833.33 714.29 1000 642.86 1000 571.43 833.33 642.86 666.67 571.43"/><polygon points="666.67 714.29 500 785.71 333.33 714.29 166.67 785.71 0 714.29 0 785.71 166.67 857.14 333.33 785.71 500 857.14 666.67 785.71 833.33 857.14 1000 785.71 1000 714.29 833.33 785.71 666.67 714.29"/><polygon points="666.67 857.14 500 928.57 333.33 857.14 166.67 928.57 0 857.14 0 928.57 166.67 1000 333.33 928.57 500 1000 666.67 928.57 833.33 1000 1000 928.57 1000 857.14 833.33 928.57 666.67 857.14"/></svg>