<svg id="Calque_1" data-name="Calque 1" xmlns="http://www.w3.org/2000/svg" viewBox="0 0 1000 1000"><defs><style>.cls-1{fill:#09632e;}</style></defs><title>pattern-serie1</title><polygon class="cls-1" points="666.8 642.75 542.93 527.51 659.94 659.11 666.67 666.67 673.48 659.16 792.93 527.51 666.8 642.75"/><polygon class="cls-1" points="557.49 502.69 660.66 619.11 666.81 626.08 673.04 619.16 778.36 502.69 666.93 604.17 557.49 502.69"/><polygon class="cls-1" points="572.06 477.86 661.38 579.11 666.96 585.48 672.6 579.16 763.8 477.86 667.06 565.59 572.06 477.86"/><polygon class="cls-1" points="586.62 453.04 662.11 539.11 667.1 544.88 672.16 539.15 749.24 453.04 667.2 527.02 586.62 453.04"/><polygon class="cls-1" points="601.18 428.22 662.83 499.11 667.24 504.29 671.72 499.15 734.67 428.22 667.33 488.45 601.18 428.22"/><polygon class="cls-1" points="615.75 403.4 663.55 459.11 667.39 463.69 671.28 459.14 720.11 403.4 667.46 449.88 615.75 403.4"/><polygon class="cls-1" points="630.31 378.57 664.27 419.11 667.53 423.09 670.84 419.14 705.54 378.57 667.6 411.33 630.31 378.57"/><polygon class="cls-1" points="670.4 379.13 690.98 353.75 667.73 372.82 644.88 353.75 664.99 379.11 667.68 382.5 670.4 379.13"/><polygon class="cls-1" points="993.28 659.11 1000 666.67 1000 642.63 876.26 527.51 993.28 659.11"/><polygon class="cls-1" points="994 619.11 1000 625.91 1000 603.93 890.83 502.69 994 619.11"/><polygon class="cls-1" points="994.72 579.11 1000 585.15 1000 565.23 905.39 477.86 994.72 579.11"/><polygon class="cls-1" points="995.44 539.11 1000 544.38 1000 526.53 919.95 453.04 995.44 539.11"/><polygon class="cls-1" points="996.16 499.11 1000 503.61 1000 487.84 934.52 428.22 996.16 499.11"/><polygon class="cls-1" points="996.88 459.11 1000 462.83 1000 449.17 949.08 403.4 996.88 459.11"/><polygon class="cls-1" points="997.6 419.11 1000 422.04 1000 410.51 963.64 378.57 997.6 419.11"/><polygon class="cls-1" points="998.32 379.11 1000 381.23 1000 371.94 978.21 353.75 998.32 379.11"/><polygon class="cls-1" points="333.46 642.75 209.59 527.51 326.61 659.11 333.33 666.67 340.14 659.16 459.6 527.51 333.46 642.75"/><polygon class="cls-1" points="327.33 619.11 333.48 626.08 339.7 619.16 445.03 502.69 333.6 604.17 224.16 502.69 327.33 619.11"/><polygon class="cls-1" points="328.05 579.11 333.62 585.48 339.27 579.16 430.47 477.86 333.73 565.59 238.72 477.86 328.05 579.11"/><polygon class="cls-1" points="328.77 539.11 333.77 544.88 338.83 539.15 415.9 453.04 333.86 527.02 253.29 453.04 328.77 539.11"/><polygon class="cls-1" points="329.49 499.11 333.91 504.29 338.39 499.15 401.34 428.22 334 488.45 267.85 428.22 329.49 499.11"/><polygon class="cls-1" points="330.21 459.11 334.06 463.69 337.95 459.14 386.78 403.4 334.13 449.88 282.41 403.4 330.21 459.11"/><polygon class="cls-1" points="334.2 423.09 337.51 419.14 372.21 378.57 334.26 411.33 296.98 378.57 330.94 419.11 334.2 423.09"/><polygon class="cls-1" points="311.54 353.75 331.66 379.11 334.34 382.5 337.07 379.13 357.65 353.75 334.4 372.82 311.54 353.75"/><polygon class="cls-1" points="792.93 860.84 666.8 976.08 542.93 860.84 659.94 992.44 666.67 1000 673.48 992.49 792.93 860.84"/><polygon class="cls-1" points="557.49 836.01 660.66 952.44 666.81 959.4 673.04 952.49 778.36 836.01 666.93 937.5 557.49 836.01"/><polygon class="cls-1" points="572.06 811.19 661.38 912.44 666.96 918.81 672.6 912.49 763.8 811.19 667.06 898.92 572.06 811.19"/><polygon class="cls-1" points="586.62 786.37 662.11 872.44 667.1 878.21 672.16 872.48 749.24 786.37 667.2 860.35 586.62 786.37"/><polygon class="cls-1" points="601.18 761.55 662.83 832.44 667.24 837.62 671.72 832.48 734.67 761.55 667.33 821.77 601.18 761.55"/><polygon class="cls-1" points="615.75 736.73 663.55 792.44 667.39 797.02 671.28 792.47 720.11 736.73 667.46 783.21 615.75 736.73"/><polygon class="cls-1" points="630.31 711.9 664.27 752.44 667.53 756.42 670.84 752.47 705.54 711.9 667.6 744.66 630.31 711.9"/><polygon class="cls-1" points="670.4 712.46 690.98 687.08 667.73 706.15 644.88 687.08 664.99 712.44 667.68 715.83 670.4 712.46"/><polygon class="cls-1" points="876.26 860.84 993.28 992.44 1000 1000 1000 975.96 876.26 860.84"/><polygon class="cls-1" points="994 952.44 1000 959.24 1000 937.25 890.83 836.01 994 952.44"/><polygon class="cls-1" points="994.72 912.44 1000 918.48 1000 898.55 905.39 811.19 994.72 912.44"/><polygon class="cls-1" points="995.44 872.44 1000 877.71 1000 859.86 919.95 786.37 995.44 872.44"/><polygon class="cls-1" points="996.16 832.44 1000 836.94 1000 821.17 934.52 761.55 996.16 832.44"/><polygon class="cls-1" points="996.88 792.44 1000 796.16 1000 782.5 949.08 736.73 996.88 792.44"/><polygon class="cls-1" points="997.6 752.44 1000 755.37 1000 743.84 963.64 711.9 997.6 752.44"/><polygon class="cls-1" points="998.32 712.44 1000 714.55 1000 705.26 978.21 687.08 998.32 712.44"/><polygon class="cls-1" points="459.6 860.84 333.46 976.08 209.59 860.84 326.61 992.44 333.33 1000 340.14 992.49 459.6 860.84"/><polygon class="cls-1" points="224.16 836.01 327.33 952.44 333.48 959.4 339.7 952.49 445.03 836.01 333.6 937.5 224.16 836.01"/><polygon class="cls-1" points="238.72 811.19 328.05 912.44 333.62 918.81 339.27 912.49 430.47 811.19 333.73 898.92 238.72 811.19"/><polygon class="cls-1" points="253.29 786.37 328.77 872.44 333.77 878.21 338.83 872.48 415.9 786.37 333.86 860.35 253.29 786.37"/><polygon class="cls-1" points="267.85 761.55 329.49 832.44 333.91 837.62 338.39 832.48 401.34 761.55 334 821.77 267.85 761.55"/><polygon class="cls-1" points="282.41 736.73 330.21 792.44 334.06 797.02 337.95 792.47 386.78 736.73 334.13 783.21 282.41 736.73"/><polygon class="cls-1" points="296.98 711.9 330.94 752.44 334.2 756.42 337.51 752.47 372.21 711.9 334.26 744.66 296.98 711.9"/><polygon class="cls-1" points="337.07 712.46 357.65 687.08 334.4 706.15 311.54 687.08 331.66 712.44 334.34 715.83 337.07 712.46"/><polygon class="cls-1" points="659.94 325.78 666.67 333.34 673.48 325.84 792.93 194.18 666.8 309.42 542.93 194.18 659.94 325.78"/><polygon class="cls-1" points="660.66 285.78 666.81 292.75 673.04 285.83 778.36 169.36 666.93 270.84 557.49 169.36 660.66 285.78"/><polygon class="cls-1" points="661.38 245.78 666.96 252.15 672.6 245.83 763.8 144.53 667.06 232.26 572.06 144.53 661.38 245.78"/><polygon class="cls-1" points="662.11 205.78 667.1 211.55 672.16 205.82 749.24 119.71 667.2 193.69 586.62 119.71 662.11 205.78"/><polygon class="cls-1" points="662.83 165.78 667.24 170.96 671.72 165.82 734.67 94.89 667.33 155.12 601.18 94.89 662.83 165.78"/><polygon class="cls-1" points="671.28 125.81 720.11 70.07 667.46 116.55 615.75 70.07 663.55 125.78 667.39 130.36 671.28 125.81"/><polygon class="cls-1" points="667.53 89.77 670.84 85.81 705.54 45.25 667.6 78 630.31 45.25 664.27 85.78 667.53 89.77"/><polygon class="cls-1" points="667.68 49.17 670.4 45.8 690.98 20.42 667.73 39.49 644.88 20.42 664.99 45.78 667.68 49.17"/><polygon class="cls-1" points="709.56 368.01 826.58 499.61 833.3 507.17 840.11 499.67 959.56 368.01 833.43 483.25 709.56 368.01"/><polygon class="cls-1" points="724.13 343.19 827.3 459.61 833.44 466.57 839.67 459.66 945 343.19 833.56 444.67 724.13 343.19"/><polygon class="cls-1" points="738.69 318.36 828.02 419.61 833.59 425.98 839.23 419.66 930.43 318.36 833.7 406.09 738.69 318.36"/><polygon class="cls-1" points="753.25 293.54 828.74 379.61 833.73 385.38 838.79 379.65 915.87 293.54 833.83 367.52 753.25 293.54"/><polygon class="cls-1" points="767.82 268.72 829.46 339.61 833.88 344.79 838.35 339.65 901.31 268.72 833.96 328.95 767.82 268.72"/><polygon class="cls-1" points="782.38 243.9 830.18 299.61 834.02 304.19 837.91 299.64 886.74 243.9 834.1 290.38 782.38 243.9"/><polygon class="cls-1" points="830.9 259.61 834.16 263.59 837.48 259.64 872.18 219.07 834.23 251.83 796.94 219.07 830.9 259.61"/><polygon class="cls-1" points="837.04 219.63 857.61 194.25 834.36 213.32 811.51 194.25 831.62 219.61 834.31 223 837.04 219.63"/><polygon class="cls-1" points="993.28 325.78 1000 333.34 1000 309.3 876.26 194.18 993.28 325.78"/><polygon class="cls-1" points="994 285.78 1000 292.58 1000 270.6 890.83 169.36 994 285.78"/><polygon class="cls-1" points="994.72 245.78 1000 251.82 1000 231.9 905.39 144.53 994.72 245.78"/><polygon class="cls-1" points="995.44 205.78 1000 211.05 1000 193.2 919.95 119.71 995.44 205.78"/><polygon class="cls-1" points="996.16 165.78 1000 170.28 1000 154.51 934.52 94.89 996.16 165.78"/><polygon class="cls-1" points="996.88 125.78 1000 129.5 1000 115.84 949.08 70.07 996.88 125.78"/><polygon class="cls-1" points="997.6 85.78 1000 88.71 1000 77.19 963.64 45.25 997.6 85.78"/><polygon class="cls-1" points="998.32 45.78 1000 47.9 1000 38.61 978.21 20.42 998.32 45.78"/><polygon class="cls-1" points="126.26 527.51 0.13 642.75 0 642.63 0 666.67 6.81 659.16 126.26 527.51"/><polygon class="cls-1" points="6.37 619.16 111.7 502.69 0.26 604.17 0 603.93 0 625.91 0.14 626.08 6.37 619.16"/><polygon class="cls-1" points="5.93 579.16 97.13 477.86 0.4 565.59 0 565.23 0 585.15 0.29 585.48 5.93 579.16"/><polygon class="cls-1" points="5.49 539.15 82.57 453.04 0.53 527.02 0 526.53 0 544.38 0.43 544.88 5.49 539.15"/><polygon class="cls-1" points="5.05 499.15 68.01 428.22 0.66 488.45 0 487.84 0 503.61 0.58 504.29 5.05 499.15"/><polygon class="cls-1" points="4.62 459.14 53.44 403.4 0.8 449.88 0 449.17 0 462.83 0.72 463.69 4.62 459.14"/><polygon class="cls-1" points="4.18 419.14 38.88 378.57 0.93 411.33 0 410.51 0 422.04 0.87 423.09 4.18 419.14"/><polygon class="cls-1" points="3.74 379.13 24.32 353.75 1.06 372.82 0 371.94 0 381.23 1.01 382.5 3.74 379.13"/><polygon class="cls-1" points="126.26 860.84 0.13 976.08 0 975.96 0 1000 6.81 992.49 126.26 860.84"/><polygon class="cls-1" points="6.37 952.49 111.7 836.01 0.26 937.5 0 937.25 0 959.24 0.14 959.4 6.37 952.49"/><polygon class="cls-1" points="5.93 912.49 97.13 811.19 0.4 898.92 0 898.55 0 918.48 0.29 918.81 5.93 912.49"/><polygon class="cls-1" points="5.49 872.48 82.57 786.37 0.53 860.35 0 859.86 0 877.71 0.43 878.21 5.49 872.48"/><polygon class="cls-1" points="5.05 832.48 68.01 761.55 0.66 821.77 0 821.17 0 836.94 0.58 837.62 5.05 832.48"/><polygon class="cls-1" points="4.62 792.47 53.44 736.73 0.8 783.21 0 782.5 0 796.16 0.72 797.02 4.62 792.47"/><polygon class="cls-1" points="4.18 752.47 38.88 711.9 0.93 744.66 0 743.84 0 755.37 0.87 756.42 4.18 752.47"/><polygon class="cls-1" points="3.74 712.46 24.32 687.08 1.06 706.15 0 705.26 0 714.55 1.01 715.83 3.74 712.46"/><polygon class="cls-1" points="126.26 194.18 0.13 309.42 0 309.3 0 333.34 6.81 325.84 126.26 194.18"/><polygon class="cls-1" points="6.37 285.83 111.7 169.36 0.26 270.84 0 270.6 0 292.58 0.14 292.75 6.37 285.83"/><polygon class="cls-1" points="5.93 245.83 97.13 144.53 0.4 232.26 0 231.9 0 251.82 0.29 252.15 5.93 245.83"/><polygon class="cls-1" points="5.49 205.82 82.57 119.71 0.53 193.69 0 193.2 0 211.05 0.43 211.55 5.49 205.82"/><polygon class="cls-1" points="5.05 165.82 68.01 94.89 0.66 155.12 0 154.51 0 170.28 0.58 170.96 5.05 165.82"/><polygon class="cls-1" points="4.62 125.81 53.44 70.07 0.8 116.55 0 115.84 0 129.5 0.72 130.36 4.62 125.81"/><polygon class="cls-1" points="4.18 85.81 38.88 45.25 0.93 78 0 77.19 0 88.71 0.87 89.77 4.18 85.81"/><polygon class="cls-1" points="3.74 45.8 24.32 20.42 1.06 39.49 0 38.61 0 47.9 1.01 49.17 3.74 45.8"/><polygon class="cls-1" points="326.61 325.78 333.33 333.34 340.14 325.84 459.6 194.18 333.46 309.42 209.59 194.18 326.61 325.78"/><polygon class="cls-1" points="327.33 285.78 333.48 292.75 339.7 285.83 445.03 169.36 333.6 270.84 224.16 169.36 327.33 285.78"/><polygon class="cls-1" points="328.05 245.78 333.62 252.15 339.27 245.83 430.47 144.53 333.73 232.26 238.72 144.53 328.05 245.78"/><polygon class="cls-1" points="328.77 205.78 333.77 211.55 338.83 205.82 415.9 119.71 333.86 193.69 253.29 119.71 328.77 205.78"/><polygon class="cls-1" points="329.49 165.78 333.91 170.96 338.39 165.82 401.34 94.89 334 155.12 267.85 94.89 329.49 165.78"/><polygon class="cls-1" points="337.95 125.81 386.78 70.07 334.13 116.55 282.41 70.07 330.21 125.78 334.06 130.36 337.95 125.81"/><polygon class="cls-1" points="334.2 89.77 337.51 85.81 372.21 45.25 334.26 78 296.98 45.25 330.94 85.78 334.2 89.77"/><polygon class="cls-1" points="334.34 49.17 337.07 45.8 357.65 20.42 334.4 39.49 311.54 20.42 331.66 45.78 334.34 49.17"/><polygon class="cls-1" points="500.16 483.25 376.3 368.01 493.31 499.61 500.03 507.17 506.84 499.67 626.29 368.01 500.16 483.25"/><polygon class="cls-1" points="494.03 459.61 500.18 466.57 506.4 459.66 611.73 343.19 500.3 444.67 390.86 343.19 494.03 459.61"/><polygon class="cls-1" points="494.75 419.61 500.32 425.98 505.97 419.66 597.17 318.36 500.43 406.09 405.42 318.36 494.75 419.61"/><polygon class="cls-1" points="495.47 379.61 500.47 385.38 505.53 379.65 582.6 293.54 500.56 367.52 419.99 293.54 495.47 379.61"/><polygon class="cls-1" points="505.09 339.65 568.04 268.72 500.7 328.95 434.55 268.72 496.19 339.61 500.61 344.79 505.09 339.65"/><polygon class="cls-1" points="496.92 299.61 500.75 304.19 504.65 299.64 553.48 243.9 500.83 290.38 449.11 243.9 496.92 299.61"/><polygon class="cls-1" points="497.64 259.61 500.9 263.59 504.21 259.64 538.91 219.07 500.96 251.83 463.68 219.07 497.64 259.61"/><polygon class="cls-1" points="503.77 219.63 524.35 194.25 501.1 213.32 478.24 194.25 498.36 219.61 501.04 223 503.77 219.63"/><polygon class="cls-1" points="166.7 507.17 173.51 499.67 292.96 368.01 166.83 483.25 42.96 368.01 159.98 499.61 166.7 507.17"/><polygon class="cls-1" points="166.84 466.57 173.07 459.66 278.4 343.19 166.96 444.67 57.52 343.19 160.7 459.61 166.84 466.57"/><polygon class="cls-1" points="166.99 425.98 172.63 419.66 263.83 318.36 167.1 406.09 72.09 318.36 161.42 419.61 166.99 425.98"/><polygon class="cls-1" points="167.13 385.38 172.19 379.65 249.27 293.54 167.23 367.52 86.65 293.54 162.14 379.61 167.13 385.38"/><polygon class="cls-1" points="167.28 344.79 171.75 339.65 234.71 268.72 167.36 328.95 101.22 268.72 162.86 339.61 167.28 344.79"/><polygon class="cls-1" points="167.42 304.19 171.32 299.64 220.14 243.9 167.5 290.38 115.78 243.9 163.58 299.61 167.42 304.19"/><polygon class="cls-1" points="164.3 259.61 167.57 263.59 170.88 259.64 205.58 219.07 167.63 251.83 130.34 219.07 164.3 259.61"/><polygon class="cls-1" points="170.44 219.63 191.01 194.25 167.76 213.32 144.91 194.25 165.02 219.61 167.71 223 170.44 219.63"/><polygon class="cls-1" points="833.3 840.51 840.11 833.01 959.56 701.35 833.43 816.59 709.56 701.35 826.58 832.95 833.3 840.51"/><polygon class="cls-1" points="724.13 676.53 827.3 792.95 833.44 799.92 839.67 793 945 676.53 833.56 778.01 724.13 676.53"/><polygon class="cls-1" points="738.69 651.71 828.02 752.95 833.59 759.32 839.23 753 930.43 651.71 833.7 739.43 738.69 651.71"/><polygon class="cls-1" points="753.25 626.88 828.74 712.95 833.73 718.73 838.79 712.99 915.87 626.88 833.83 700.86 753.25 626.88"/><polygon class="cls-1" points="767.82 602.06 829.46 672.95 833.88 678.13 838.35 672.99 901.31 602.06 833.96 662.29 767.82 602.06"/><polygon class="cls-1" points="782.38 577.24 830.18 632.95 834.02 637.53 837.91 632.99 886.74 577.24 834.1 623.72 782.38 577.24"/><polygon class="cls-1" points="830.9 592.95 834.16 596.94 837.48 592.98 872.18 552.42 834.23 585.17 796.94 552.42 830.9 592.95"/><polygon class="cls-1" points="837.04 552.98 857.61 527.6 834.36 546.66 811.51 527.6 831.62 552.95 834.31 556.34 837.04 552.98"/><polygon class="cls-1" points="500.16 816.59 376.3 701.35 493.31 832.95 500.03 840.51 506.84 833.01 626.29 701.35 500.16 816.59"/><polygon class="cls-1" points="500.18 799.92 506.4 793 611.73 676.53 500.3 778.01 390.86 676.53 494.03 792.95 500.18 799.92"/><polygon class="cls-1" points="405.42 651.71 494.75 752.95 500.32 759.32 505.97 753 597.17 651.71 500.43 739.43 405.42 651.71"/><polygon class="cls-1" points="419.99 626.88 495.47 712.95 500.47 718.73 505.53 712.99 582.6 626.88 500.56 700.86 419.99 626.88"/><polygon class="cls-1" points="434.55 602.06 496.19 672.95 500.61 678.13 505.09 672.99 568.04 602.06 500.7 662.29 434.55 602.06"/><polygon class="cls-1" points="449.11 577.24 496.92 632.95 500.75 637.53 504.65 632.99 553.48 577.24 500.83 623.72 449.11 577.24"/><polygon class="cls-1" points="463.68 552.42 497.64 592.95 500.9 596.94 504.21 592.98 538.91 552.42 500.96 585.17 463.68 552.42"/><polygon class="cls-1" points="503.77 552.98 524.35 527.6 501.1 546.66 478.24 527.6 498.36 552.95 501.04 556.34 503.77 552.98"/><polygon class="cls-1" points="166.83 816.59 42.96 701.35 159.98 832.95 166.7 840.51 173.51 833.01 292.96 701.35 166.83 816.59"/><polygon class="cls-1" points="166.84 799.92 173.07 793 278.4 676.53 166.96 778.01 57.52 676.53 160.7 792.95 166.84 799.92"/><polygon class="cls-1" points="166.99 759.32 172.63 753 263.83 651.71 167.1 739.43 72.09 651.71 161.42 752.95 166.99 759.32"/><polygon class="cls-1" points="167.13 718.73 172.19 712.99 249.27 626.88 167.23 700.86 86.65 626.88 162.14 712.95 167.13 718.73"/><polygon class="cls-1" points="167.28 678.13 171.75 672.99 234.71 602.06 167.36 662.29 101.22 602.06 162.86 672.95 167.28 678.13"/><polygon class="cls-1" points="167.42 637.53 171.32 632.99 220.14 577.24 167.5 623.72 115.78 577.24 163.58 632.95 167.42 637.53"/><polygon class="cls-1" points="164.3 592.95 167.57 596.94 170.88 592.98 205.58 552.42 167.63 585.17 130.34 552.42 164.3 592.95"/><polygon class="cls-1" points="170.44 552.98 191.01 527.6 167.76 546.66 144.91 527.6 165.02 552.95 167.71 556.34 170.44 552.98"/><polygon class="cls-1" points="833.3 173.83 840.11 166.32 959.56 34.66 833.43 149.91 709.56 34.66 826.58 166.27 833.3 173.83"/><polygon class="cls-1" points="833.44 133.23 839.67 126.32 945 9.84 833.56 111.33 724.13 9.84 827.3 126.27 833.44 133.23"/><polygon class="cls-1" points="833.59 92.64 839.23 86.31 916.95 0 913.91 0 833.7 72.75 754.91 0 751.9 0 828.02 86.27 833.59 92.64"/><polygon class="cls-1" points="833.73 52.04 838.79 46.31 880.24 0 871.73 0 833.83 34.17 796.61 0 788.16 0 828.74 46.27 833.73 52.04"/><polygon class="cls-1" points="833.88 11.44 838.35 6.3 843.95 0 824.01 0 829.46 6.27 833.88 11.44"/><polygon class="cls-1" points="500.03 173.83 506.84 166.32 626.29 34.66 500.16 149.91 376.3 34.66 493.31 166.27 500.03 173.83"/><polygon class="cls-1" points="500.18 133.23 506.4 126.32 611.73 9.84 500.3 111.33 390.86 9.84 494.03 126.27 500.18 133.23"/><polygon class="cls-1" points="500.32 92.64 505.97 86.31 583.68 0 580.65 0 500.43 72.75 421.64 0 418.64 0 494.75 86.27 500.32 92.64"/><polygon class="cls-1" points="500.47 52.04 505.53 46.31 546.98 0 538.46 0 500.56 34.17 463.34 0 454.89 0 495.47 46.27 500.47 52.04"/><polygon class="cls-1" points="500.61 11.44 505.09 6.3 510.68 0 490.74 0 496.19 6.27 500.61 11.44"/><polygon class="cls-1" points="166.7 173.83 173.51 166.32 292.96 34.66 166.83 149.91 42.96 34.66 159.98 166.27 166.7 173.83"/><polygon class="cls-1" points="166.84 133.23 173.07 126.32 278.4 9.84 166.96 111.33 57.52 9.84 160.7 126.27 166.84 133.23"/><polygon class="cls-1" points="166.99 92.64 172.63 86.31 250.35 0 247.32 0 167.1 72.75 88.31 0 85.31 0 161.42 86.27 166.99 92.64"/><polygon class="cls-1" points="167.13 52.04 172.19 46.31 213.64 0 205.13 0 167.23 34.17 130.01 0 121.56 0 162.14 46.27 167.13 52.04"/><polygon class="cls-1" points="167.28 11.44 171.75 6.3 177.35 0 157.41 0 162.86 6.27 167.28 11.44"/><polygon class="cls-1" points="913.95 1000 916.97 1000 930.43 985.05 913.95 1000"/><polygon class="cls-1" points="738.69 985.05 751.88 1000 754.88 1000 738.69 985.05"/><polygon class="cls-1" points="753.25 960.23 788.14 1000 796.58 1000 753.25 960.23"/><polygon class="cls-1" points="915.87 960.23 871.76 1000 880.27 1000 915.87 960.23"/><polygon class="cls-1" points="901.31 935.4 833.96 995.63 767.82 935.4 823.99 1000 843.97 1000 901.31 935.4"/><polygon class="cls-1" points="782.38 910.58 830.18 966.29 834.02 970.88 837.91 966.33 886.74 910.58 834.1 957.07 782.38 910.58"/><polygon class="cls-1" points="830.9 926.3 834.16 930.28 837.48 926.32 872.18 885.76 834.23 918.52 796.94 885.76 830.9 926.3"/><polygon class="cls-1" points="837.04 886.32 857.61 860.94 834.36 880.01 811.51 860.94 831.62 886.3 834.31 889.68 837.04 886.32"/><polygon class="cls-1" points="580.68 1000 583.7 1000 597.17 985.05 580.68 1000"/><polygon class="cls-1" points="405.42 985.05 418.62 1000 421.62 1000 405.42 985.05"/><polygon class="cls-1" points="419.99 960.23 454.87 1000 463.31 1000 419.99 960.23"/><polygon class="cls-1" points="582.6 960.23 538.49 1000 547 1000 582.6 960.23"/><polygon class="cls-1" points="568.04 935.4 500.7 995.63 434.55 935.4 490.72 1000 510.71 1000 568.04 935.4"/><polygon class="cls-1" points="449.11 910.58 496.92 966.29 500.75 970.88 504.65 966.33 553.48 910.58 500.83 957.07 449.11 910.58"/><polygon class="cls-1" points="497.64 926.3 500.9 930.28 504.21 926.32 538.91 885.76 500.96 918.52 463.68 885.76 497.64 926.3"/><polygon class="cls-1" points="503.77 886.32 524.35 860.94 501.1 880.01 478.24 860.94 498.36 886.3 501.04 889.68 503.77 886.32"/><polygon class="cls-1" points="247.35 1000 250.37 1000 263.83 985.05 247.35 1000"/><polygon class="cls-1" points="72.09 985.05 85.28 1000 88.28 1000 72.09 985.05"/><polygon class="cls-1" points="86.65 960.23 121.54 1000 129.98 1000 86.65 960.23"/><polygon class="cls-1" points="249.27 960.23 205.16 1000 213.67 1000 249.27 960.23"/><polygon class="cls-1" points="234.71 935.4 167.36 995.63 101.22 935.4 157.39 1000 177.37 1000 234.71 935.4"/><polygon class="cls-1" points="115.78 910.58 163.58 966.29 167.42 970.88 171.32 966.33 220.14 910.58 167.5 957.07 115.78 910.58"/><polygon class="cls-1" points="164.3 926.3 167.57 930.28 170.88 926.32 205.58 885.76 167.63 918.52 130.34 885.76 164.3 926.3"/><polygon class="cls-1" points="170.44 886.32 191.01 860.94 167.76 880.01 144.91 860.94 165.02 886.3 167.71 889.68 170.44 886.32"/></svg>