<svg id="Calque_1" data-name="Calque 1" xmlns="http://www.w3.org/2000/svg" viewBox="0 0 1000 1000"><defs><style>.cls-1{fill:none;}.cls-2{fill:#010101;}</style></defs><title>pattern-serie1</title><polygon class="cls-1" points="918.91 750.79 780.3 612.17 862.97 529.5 1000 666.54 1000 333.46 612.17 721.29 529.5 638.62 1000 168.12 1000 0 831.88 0 750.79 81.09 612.17 219.7 529.5 137.03 666.54 0 333.46 0 721.29 387.83 638.62 470.5 168.12 0 0 0 0 168.12 219.7 387.83 137.03 470.5 0 333.46 0 666.54 387.83 278.71 470.5 361.38 81.09 750.79 0 831.88 0 1000 168.12 1000 249.21 918.91 387.83 780.3 470.5 862.97 333.46 1000 666.54 1000 278.71 612.17 361.38 529.5 750.79 918.91 831.88 1000 1000 1000 1000 831.88 918.91 750.79"/><polygon class="cls-2" points="470.5 361.38 387.83 278.71 0 666.54 0 831.88 81.09 750.79 470.5 361.38"/><polygon class="cls-2" points="219.7 387.83 0 168.12 0 333.46 137.03 470.5 219.7 387.83"/><polygon class="cls-2" points="361.38 529.5 278.71 612.17 666.54 1000 831.88 1000 750.79 918.91 361.38 529.5"/><polygon class="cls-2" points="387.83 780.3 249.21 918.91 168.12 1000 333.46 1000 470.5 862.97 387.83 780.3"/><polygon class="cls-2" points="612.17 219.7 750.79 81.09 831.88 0 666.54 0 529.5 137.03 612.17 219.7"/><polygon class="cls-2" points="721.29 387.83 333.46 0 168.12 0 638.62 470.5 721.29 387.83"/><polygon class="cls-2" points="612.17 721.29 1000 333.46 1000 168.12 529.5 638.62 612.17 721.29"/><polygon class="cls-2" points="780.3 612.17 918.91 750.79 1000 831.88 1000 666.54 862.97 529.5 780.3 612.17"/></svg>